<svg width="29" height="10" viewBox="0 0 29 10" fill="none" xmlns="http://www.w3.org/2000/svg">
<path d="M4.144 0.599999H6.04V9H4.816V2.412L4.024 6.624H2.524L1.744 2.412V9H0.52V0.599999H2.416L3.28 5.316L4.144 0.599999ZM13.8626 9H8.07859V0.599999H13.6346V1.836H9.41059V4.128H13.1906V5.376H9.41059V7.752H13.8626V9ZM21.1572 0.599999V9H19.6572L16.9452 2.856V9H15.6372V0.599999H17.2812L19.8492 6.48V0.599999H21.1572ZM27.4078 0.599999H28.7158V6.276C28.7158 7.22 28.4718 7.948 27.9838 8.46C27.4958 8.964 26.8238 9.216 25.9678 9.216C25.1118 9.216 24.4358 8.964 23.9398 8.46C23.4438 7.948 23.1958 7.22 23.1958 6.276V0.599999H24.5278V6.3C24.5278 6.836 24.6638 7.248 24.9358 7.536C25.2078 7.816 25.5678 7.956 26.0158 7.956C26.4398 7.956 26.7758 7.832 27.0238 7.584C27.2798 7.328 27.4078 6.952 27.4078 6.456V0.599999Z" fill="#1E1E1E"/>
</svg>
