<svg xmlns="http://www.w3.org/2000/svg" viewBox="0 0 1024 1024"><path fill="#f5841f" d="m837.001 511.501 34.5-40.499-15.002-11.004 24-21.999-18.5-13.999 24-18-15.501-12 25.003-122-37.999-113zM857.502 159 613.5 249.5H410L166 159l-38 113 25.5 122-16 12 24.5 18-18.5 13.999 24 21.999-15 11.004 34.5 40.499-52.5 162.001 48.5 165.5L353.5 792l33 26.999 67.499 45.999h115.503l67.499-45.999L669.999 792l170.999 47.002 49.003-165.5L837 511.501z"/><path fill="#e27625" d="M857.502 159 557.999 379.5l55.501-130L857.502 159zM166 159l297.002 222.5-53.001-132-244-90.5zM749.999 670.498l-80 121.003 170.999 46.997 49.003-165.5-140.002-2.5zM134.5 672.998l48.5 165.5 170.5-46.997L274 670.498l-139.5 2.5z"/><path fill="#e27625" d="M344.5 465.502 297 536.999l169.001 7.501-5.5-180.999L344.5 465.503zM679.501 465.502 561.502 361.5l-3.503 182.999 169.003-7.501-47.501-71.497zM353.5 791.501 456 742.498 367.5 674.5l-14 117.001zM568 742.498l101.999 49.003L656 674.5l-88 67.998z"/><path fill="#d7c1b3" d="M669.999 791.501 568 742.498l8.499 66.001-.998 28.002 94.498-45.001zM353.5 791.501l94.999 45.001L448 808.5l8-66.001-102.5 49.003z"/><path fill="#2f343b" d="M450.001 630.498 365.5 605.999l60-27.499 24.501 51.998zM573.5 630.498l24.998-51.998 60.002 27.499-85.001 24.499z"/><path fill="#cc6228" d="m353.5 791.501 15-121.003-94.5 2.5L353.5 791.5zM655.501 670.498l14.498 121.003 80-118.502-94.498-2.5zM727.002 536.998l-169.003 7.501 15.501 85.999 24.998-51.998 60.002 27.499 68.501-69.001zM365.5 605.999l60-27.499 24.501 51.998 16-85.999L297 536.998l68.5 69.001z"/><path fill="#e27625" d="M297 536.998 367.5 674.5l-2-68.501-68.5-69.001zM658.5 605.999 656 674.5l71.002-137.502-68.501 69.001zM466.001 544.499l-16 85.999 19.998 102.003 4.501-134.003-8.499-53.999zM557.999 544.499l-8.499 53.5 4.002 134.502L573.5 630.498l-15.501-85.999z"/><path fill="#f5841f" d="m573.5 630.498-19.998 102.003L568 742.498l88-67.998 2.5-68.501-85.001 24.499zM365.5 605.999l2 68.501 88.5 67.998 13.999-9.997-19.998-102.003-84.501-24.499z"/><path fill="#c0ad9e" d="m575.501 836.501.998-28.002-8-6.498H455.001l-7.002 6.498.499 28.002-94.999-45.001 33 26.999 67.499 46.498h115.503L637 818.499l32.998-26.999-94.498 45.001z"/><path fill="#2f343b" d="m568 742.498-14.498-9.997h-83.503L456 742.498l-8 66.001 7.002-6.498H568.5l8 6.498-8.499-66.001z"/><path fill="#763e1a" d="m870.498 394 25.003-122-37.999-113L568 372l111.501 93.502 157.5 45.999 34.5-40.499-15.002-10.999 24-21.504-18.5-14.498 24-18-15.501-12zM128 272l25.5 122-16 12 24 18.5-18.5 13.998 24 21.504-15 10.999 35 40.499 157.5-45.999L456 371.999l-290-213-38 113z"/><path fill="#f5841f" d="m837.001 511.501-157.5-45.999 47.501 71.497L656 674.501l93.999-1.502h140.002L837 511.501zM344.5 465.502 187 511.501l-52.5 161.498H274l93.5 1.502L297 536.999l47.5-71.497zM557.999 544.499 568 372l45.5-122.5H410L456 372l10.001 172.499 3.998 53.999v134.003h83.503l.499-134.003 3.998-53.999z"/></svg>